<svg xmlns="http://www.w3.org/2000/svg" xmlns:xlink="http://www.w3.org/1999/xlink" width="1080" zoomAndPan="magnify" viewBox="0 0 810 809.999993" height="1080" preserveAspectRatio="xMidYMid meet" version="1.0"><defs><clipPath id="90ed8d745b"><path d="M 162 217 L 648 217 L 648 592.730469 L 162 592.730469 Z M 162 217 " clip-rule="nonzero"/></clipPath></defs><rect x="-81" width="972" fill="#ffffff" y="-80.999999" height="971.999992" fill-opacity="1"/><rect x="-81" width="972" fill="#ffffff" y="-80.999999" height="971.999992" fill-opacity="1"/><g clip-path="url(#90ed8d745b)"><path fill="#000000" d="M 451.390625 314.871094 L 239.792969 314.871094 L 239.792969 509.851562 L 550.65625 509.851562 L 550.65625 411.179688 C 550.65625 407.433594 553.695312 404.394531 557.449219 404.394531 C 561.199219 404.394531 564.238281 407.429688 564.238281 411.179688 L 564.238281 516.640625 C 564.238281 520.386719 561.199219 523.425781 557.449219 523.425781 L 233 523.425781 C 229.25 523.425781 226.207031 520.390625 226.207031 516.640625 L 226.207031 308.085938 C 226.207031 304.335938 229.25 301.296875 233 301.296875 L 451.390625 301.296875 C 455.140625 301.296875 458.179688 304.335938 458.179688 308.085938 C 458.179688 311.832031 455.140625 314.871094 451.390625 314.871094 Z M 621.273438 546.257812 L 621.273438 566.070312 C 621.273438 580.738281 609.332031 592.667969 594.652344 592.667969 L 188.617188 592.667969 C 173.941406 592.667969 162 580.738281 162 566.070312 L 162 546.257812 C 162 542.511719 165.039062 539.472656 168.792969 539.472656 L 196.566406 539.472656 L 196.566406 290.992188 C 196.566406 280.339844 205.222656 271.675781 215.867188 271.675781 L 458.179688 271.675781 C 461.929688 271.675781 464.972656 274.714844 464.972656 278.464844 C 464.972656 282.210938 461.929688 285.25 458.179688 285.25 L 215.867188 285.25 C 212.714844 285.25 210.148438 287.828125 210.148438 290.992188 L 210.148438 539.472656 L 580.328125 539.472656 L 580.328125 407.414062 C 580.328125 403.667969 583.367188 400.628906 587.117188 400.628906 C 590.871094 400.628906 593.910156 403.667969 593.910156 407.414062 L 593.910156 539.472656 L 614.480469 539.472656 C 618.230469 539.472656 621.273438 542.511719 621.273438 546.257812 Z M 607.6875 553.046875 L 175.585938 553.046875 L 175.585938 566.070312 C 175.585938 573.25 181.429688 579.09375 188.617188 579.09375 L 594.652344 579.09375 C 601.839844 579.09375 607.6875 573.25 607.6875 566.070312 Z M 648 308.085938 C 648 313.820312 647.46875 319.519531 646.421875 325.015625 C 645.972656 327.386719 644.292969 329.339844 642.015625 330.144531 L 626.59375 335.597656 C 626.339844 336.234375 626.078125 336.867188 625.804688 337.492188 L 632.84375 352.230469 C 633.886719 354.40625 633.691406 356.96875 632.335938 358.964844 C 625.910156 368.433594 617.84375 376.492188 608.367188 382.917969 C 606.371094 384.269531 603.808594 384.464844 601.636719 383.429688 L 586.855469 376.402344 C 586.226562 376.671875 585.601562 376.929688 584.980469 377.175781 L 579.527344 392.589844 C 578.71875 394.867188 576.761719 396.542969 574.386719 396.996094 C 568.859375 398.039062 563.164062 398.566406 557.449219 398.566406 C 551.734375 398.566406 546.039062 398.039062 540.511719 396.996094 C 538.136719 396.542969 536.179688 394.867188 535.371094 392.589844 L 529.917969 377.175781 C 529.296875 376.929688 528.671875 376.671875 528.039062 376.402344 L 513.261719 383.429688 C 511.085938 384.464844 508.519531 384.269531 506.523438 382.910156 C 497.082031 376.492188 489.019531 368.4375 482.566406 358.976562 C 481.207031 356.980469 481.011719 354.410156 482.050781 352.230469 L 489.09375 337.484375 C 488.832031 336.875 488.570312 336.246094 488.316406 335.601562 L 472.882812 330.144531 C 470.59375 329.335938 468.910156 327.367188 468.46875 324.980469 C 467.425781 319.34375 466.898438 313.660156 466.898438 308.085938 C 466.898438 302.539062 467.425781 296.859375 468.464844 291.195312 C 468.90625 288.804688 470.589844 286.835938 472.882812 286.023438 L 488.320312 280.566406 C 488.570312 279.933594 488.828125 279.3125 489.09375 278.703125 L 482.050781 263.9375 C 481.007812 261.753906 481.207031 259.183594 482.574219 257.1875 C 489.023438 247.757812 497.078125 239.710938 506.511719 233.265625 C 508.511719 231.902344 511.085938 231.699219 513.269531 232.742188 L 528.042969 239.792969 C 528.667969 239.523438 529.289062 239.265625 529.910156 239.015625 L 535.371094 223.605469 C 536.179688 221.328125 538.136719 219.652344 540.511719 219.203125 C 551.761719 217.078125 563.136719 217.078125 574.386719 219.203125 C 576.757812 219.652344 578.71875 221.328125 579.523438 223.605469 L 584.988281 239.015625 C 585.609375 239.265625 586.230469 239.523438 586.851562 239.792969 L 601.625 232.742188 C 603.808594 231.703125 606.378906 231.898438 608.375 233.257812 C 617.847656 239.707031 625.90625 247.761719 632.332031 257.199219 C 633.6875 259.191406 633.886719 261.753906 632.847656 263.929688 L 625.816406 278.699219 C 626.085938 279.328125 626.34375 279.953125 626.589844 280.574219 L 642.015625 286.023438 C 644.292969 286.828125 645.972656 288.785156 646.421875 291.160156 C 647.46875 296.683594 648 302.378906 648 308.085938 Z M 634.414062 308.085938 C 634.414062 304.523438 634.175781 300.972656 633.695312 297.480469 L 619.0625 292.308594 C 617.101562 291.617188 615.566406 290.066406 614.898438 288.097656 C 614.179688 285.992188 613.296875 283.851562 612.199219 281.546875 C 611.316406 279.703125 611.316406 277.558594 612.195312 275.710938 L 618.859375 261.714844 C 614.574219 256.042969 609.546875 251.019531 603.855469 246.71875 L 589.851562 253.402344 C 588 254.28125 585.851562 254.285156 584 253.402344 C 581.734375 252.320312 579.570312 251.421875 577.386719 250.65625 C 575.449219 249.976562 573.921875 248.453125 573.234375 246.519531 L 568.058594 231.914062 C 560.96875 230.929688 553.925781 230.929688 546.835938 231.914062 L 541.660156 246.519531 C 540.972656 248.453125 539.445312 249.976562 537.507812 250.65625 C 535.324219 251.421875 533.160156 252.320312 530.894531 253.402344 C 529.042969 254.285156 526.894531 254.28125 525.042969 253.402344 L 511.046875 246.722656 C 505.367188 251.023438 500.339844 256.042969 496.039062 261.71875 L 502.726562 275.734375 C 503.621094 277.613281 503.605469 279.796875 502.683594 281.660156 C 501.707031 283.640625 500.820312 285.765625 499.976562 288.160156 C 499.292969 290.097656 497.773438 291.625 495.835938 292.308594 L 481.210938 297.476562 C 480.726562 301.050781 480.480469 304.601562 480.480469 308.085938 C 480.480469 311.582031 480.726562 315.136719 481.210938 318.691406 L 495.835938 323.859375 C 497.773438 324.546875 499.296875 326.070312 499.976562 328.007812 C 500.839844 330.464844 501.726562 332.597656 502.683594 334.535156 C 503.605469 336.402344 503.621094 338.585938 502.722656 340.464844 L 496.039062 354.457031 C 500.339844 360.144531 505.367188 365.167969 511.042969 369.453125 L 525.050781 362.792969 C 526.898438 361.914062 529.042969 361.917969 530.890625 362.792969 C 533.199219 363.894531 535.34375 364.777344 537.445312 365.492188 C 539.414062 366.160156 540.964844 367.695312 541.660156 369.652344 L 546.835938 384.277344 C 553.816406 385.230469 561.074219 385.230469 568.058594 384.277344 L 573.234375 369.652344 C 573.925781 367.695312 575.480469 366.164062 577.445312 365.492188 C 579.550781 364.777344 581.695312 363.894531 584 362.792969 C 585.847656 361.914062 587.992188 361.914062 589.839844 362.792969 L 603.855469 369.457031 C 609.546875 365.171875 614.570312 360.152344 618.859375 354.464844 L 612.167969 340.464844 C 611.269531 338.585938 611.285156 336.402344 612.210938 334.535156 C 613.238281 332.453125 614.140625 330.28125 614.894531 328.070312 C 615.5625 326.105469 617.097656 324.554688 619.058594 323.859375 L 633.695312 318.6875 C 634.175781 315.210938 634.414062 311.660156 634.414062 308.085938 Z M 604.691406 308.085938 C 604.691406 334.113281 583.496094 355.292969 557.449219 355.292969 C 531.414062 355.292969 510.234375 334.113281 510.234375 308.085938 C 510.234375 282.070312 531.414062 260.90625 557.449219 260.90625 C 583.496094 260.90625 604.691406 282.070312 604.691406 308.085938 Z M 591.105469 308.085938 C 591.105469 289.554688 576.007812 274.480469 557.449219 274.480469 C 538.90625 274.480469 523.820312 289.554688 523.820312 308.085938 C 523.820312 326.628906 538.90625 341.714844 557.449219 341.714844 C 576.007812 341.714844 591.105469 326.628906 591.105469 308.085938 Z M 276.558594 391.257812 C 278.234375 391.257812 279.910156 390.644531 281.226562 389.402344 C 283.949219 386.828125 284.070312 382.53125 281.492188 379.808594 L 270.035156 367.707031 L 281.496094 355.582031 C 284.070312 352.855469 283.949219 348.5625 281.21875 345.988281 C 278.492188 343.414062 274.195312 343.539062 271.621094 346.261719 L 255.753906 363.050781 C 253.277344 365.667969 253.28125 369.757812 255.757812 372.375 L 271.621094 389.132812 C 272.957031 390.546875 274.757812 391.257812 276.558594 391.257812 Z M 338.738281 389.402344 C 340.050781 390.644531 341.726562 391.257812 343.402344 391.257812 C 345.203125 391.257812 347.003906 390.546875 348.339844 389.136719 L 364.207031 372.375 C 366.679688 369.757812 366.683594 365.667969 364.210938 363.050781 L 348.34375 346.261719 C 345.765625 343.539062 341.46875 343.414062 338.742188 345.988281 C 336.015625 348.5625 335.890625 352.855469 338.464844 355.582031 L 349.925781 367.707031 L 338.46875 379.808594 C 335.894531 382.53125 336.011719 386.828125 338.738281 389.402344 Z M 291.453125 406.566406 C 293.800781 406.566406 296.085938 405.347656 297.34375 403.167969 L 334.382812 339.039062 C 336.257812 335.789062 335.144531 331.640625 331.894531 329.765625 C 328.648438 327.898438 324.492188 329.007812 322.617188 332.253906 L 285.578125 396.386719 C 283.703125 399.632812 284.816406 403.78125 288.066406 405.65625 C 289.136719 406.273438 290.300781 406.566406 291.453125 406.566406 Z M 369.96875 432.96875 L 287.226562 432.96875 C 283.472656 432.96875 280.433594 436.007812 280.433594 439.757812 C 280.433594 443.503906 283.472656 446.542969 287.226562 446.542969 L 369.96875 446.542969 C 373.71875 446.542969 376.757812 443.507812 376.757812 439.757812 C 376.757812 436.007812 373.71875 432.96875 369.96875 432.96875 Z M 261.652344 432.96875 L 260.691406 432.96875 C 256.9375 432.96875 253.898438 436.007812 253.898438 439.757812 C 253.898438 443.503906 256.9375 446.542969 260.691406 446.542969 L 261.652344 446.542969 C 265.402344 446.542969 268.445312 443.507812 268.445312 439.757812 C 268.445312 436.007812 265.402344 432.96875 261.652344 432.96875 Z M 369.96875 457.398438 L 287.226562 457.398438 C 283.472656 457.398438 280.433594 460.433594 280.433594 464.183594 C 280.433594 467.933594 283.472656 470.972656 287.226562 470.972656 L 369.96875 470.972656 C 373.71875 470.972656 376.757812 467.933594 376.757812 464.183594 C 376.757812 460.433594 373.71875 457.398438 369.96875 457.398438 Z M 261.652344 457.398438 L 260.691406 457.398438 C 256.9375 457.398438 253.898438 460.433594 253.898438 464.183594 C 253.898438 467.933594 256.9375 470.972656 260.691406 470.972656 L 261.652344 470.972656 C 265.402344 470.972656 268.445312 467.933594 268.445312 464.183594 C 268.445312 460.433594 265.402344 457.398438 261.652344 457.398438 Z M 369.96875 481.824219 L 287.226562 481.824219 C 283.472656 481.824219 280.433594 484.863281 280.433594 488.613281 C 280.433594 492.359375 283.472656 495.398438 287.226562 495.398438 L 369.96875 495.398438 C 373.71875 495.398438 376.757812 492.363281 376.757812 488.613281 C 376.757812 484.863281 373.71875 481.824219 369.96875 481.824219 Z M 261.652344 481.824219 L 260.691406 481.824219 C 256.9375 481.824219 253.898438 484.863281 253.898438 488.613281 C 253.898438 492.359375 256.9375 495.398438 260.691406 495.398438 L 261.652344 495.398438 C 265.402344 495.398438 268.445312 492.363281 268.445312 488.613281 C 268.445312 484.863281 265.402344 481.824219 261.652344 481.824219 Z M 473.277344 419.699219 C 469.527344 419.699219 466.484375 422.734375 466.484375 426.484375 L 466.484375 481.824219 L 462.964844 481.824219 L 462.964844 446.460938 C 462.964844 442.714844 459.925781 439.675781 456.175781 439.675781 C 452.421875 439.675781 449.382812 442.710938 449.382812 446.460938 L 449.382812 481.824219 L 445.835938 481.824219 L 445.835938 465.558594 C 445.835938 461.808594 442.792969 458.769531 439.042969 458.769531 C 435.292969 458.769531 432.253906 461.808594 432.253906 465.558594 L 432.253906 481.824219 L 427.796875 481.824219 L 427.796875 399.476562 C 427.796875 395.726562 424.757812 392.6875 421.003906 392.6875 C 417.253906 392.6875 414.214844 395.726562 414.214844 399.476562 L 414.214844 488.613281 C 414.214844 492.359375 417.253906 495.398438 421.003906 495.398438 L 535.148438 495.398438 C 538.902344 495.398438 541.941406 492.359375 541.941406 488.613281 C 541.941406 484.863281 538.902344 481.824219 535.148438 481.824219 L 531.410156 481.824219 L 531.410156 461.65625 C 531.410156 457.90625 528.371094 454.867188 524.617188 454.867188 C 520.867188 454.867188 517.828125 457.90625 517.828125 461.65625 L 517.828125 481.824219 L 514.308594 481.824219 L 514.308594 439.894531 C 514.308594 436.144531 511.265625 433.105469 507.515625 433.105469 C 503.765625 433.105469 500.722656 436.144531 500.722656 439.894531 L 500.722656 481.824219 L 497.175781 481.824219 L 497.175781 460.253906 C 497.175781 456.507812 494.136719 453.46875 490.386719 453.46875 C 486.632812 453.46875 483.59375 456.507812 483.59375 460.253906 L 483.59375 481.824219 L 480.074219 481.824219 L 480.074219 426.484375 C 480.070312 422.738281 477.027344 419.699219 473.277344 419.699219 Z M 473.277344 419.699219 " fill-opacity="1" fill-rule="nonzero"/></g></svg>